<svg xmlns="http://www.w3.org/2000/svg" fill="none" viewBox="0 0 450 450"><g clip-path="url(#a)" transform="translate(-694.705 -388.143)"><g filter="url(#b)" transform="matrix(.99493 0 0 .97996 3.525 7.777)"><path fill="#5d95ff" d="M710.923 438.021A25.932 25.932 0 01695 414.1c0-18.557 18.924-31.107 36.019-23.886L1036 519.031c0 26.132-26.6 43.841-50.711 33.757z"/></g><g filter="url(#c)" transform="matrix(.99493 0 0 .97996 3.525 7.777)"><path fill="#5d95ff" d="M767 405.5l355.49 149.277a39.998 39.998 0 0124.51 36.88v189.381c0 28.533-29.02 47.891-55.36 36.932L767 682.93z"/></g><g filter="url(#d)" transform="matrix(.99493 0 0 .97996 3.525 7.777)"><path fill="url(#e)" fill-rule="evenodd" d="M694.705 413.47c.457-8.031 2.54-7.194 4.663-5.004 2.24 2.31 3.958 6.649 3.744 9.86a23.367 23.367 0 009.262 20.225l343.136 142.507a40 40 0 0124.66 36.941v189.303c0 28.523-29 47.881-55.34 36.941l-134.964-56.051-178.522-74.875v-.008l-.72-.299a25.855 25.855 0 01-15.842-21.878h-.077v-1.992z" clip-rule="evenodd"/></g></g><defs><filter id="b" width="341" height="167.518" x="695" y="388.143" color-interpolation-filters="sRGB" filterUnits="userSpaceOnUse"><feFlood flood-opacity="0" result="BackgroundImageFix"/><feBlend in="SourceGraphic" in2="BackgroundImageFix" result="shape"/><feColorMatrix in="SourceAlpha" result="hardAlpha" values="0 0 0 0 0 0 0 0 0 0 0 0 0 0 0 0 0 0 127 0"/><feOffset dx="7" dy="11"/><feComposite in2="hardAlpha" k2="-1" k3="1" operator="arithmetic"/><feColorMatrix values="0 0 0 0 0.709804 0 0 0 0 0.807843 0 0 0 0 1 0 0 0 1 0"/><feBlend in2="shape" result="effect1_innerShadow_970_1116"/></filter><filter id="c" width="380" height="415.58" x="767" y="405.5" color-interpolation-filters="sRGB" filterUnits="userSpaceOnUse"><feFlood flood-opacity="0" result="BackgroundImageFix"/><feBlend in="SourceGraphic" in2="BackgroundImageFix" result="shape"/><feColorMatrix in="SourceAlpha" result="hardAlpha" values="0 0 0 0 0 0 0 0 0 0 0 0 0 0 0 0 0 0 127 0"/><feOffset dx="-7" dy="5"/><feComposite in2="hardAlpha" k2="-1" k3="1" operator="arithmetic"/><feColorMatrix values="0 0 0 0 0.698039 0 0 0 0 0.803922 0 0 0 0 1 0 0 0 1 0"/><feBlend in2="shape" result="effect1_innerShadow_970_1116"/></filter><filter id="d" width="385.467" height="440.377" x="694.705" y="406.967" color-interpolation-filters="sRGB" filterUnits="userSpaceOnUse"><feFlood flood-opacity="0" result="BackgroundImageFix"/><feBlend in="SourceGraphic" in2="BackgroundImageFix" result="shape"/><feColorMatrix in="SourceAlpha" result="hardAlpha" values="0 0 0 0 0 0 0 0 0 0 0 0 0 0 0 0 0 0 127 0"/><feOffset dx="-9" dy="3"/><feComposite in2="hardAlpha" k2="-1" k3="1" operator="arithmetic"/><feColorMatrix values="0 0 0 0 1 0 0 0 0 1 0 0 0 0 1 0 0 0 0.25 0"/><feBlend in2="shape" result="effect1_innerShadow_970_1116"/></filter><linearGradient id="e" x1="887.439" x2="887.439" y1="406.967" y2="847.343" gradientUnits="userSpaceOnUse"><stop stop-color="#9CBEFF"/><stop offset="1" stop-color="#5D95FF"/></linearGradient><clipPath id="a"><path fill="#fff" d="M0 0h1920v1080H0z"/></clipPath></defs></svg>